<svg width="56" height="54" viewBox="0 0 56 54" fill="none" xmlns="http://www.w3.org/2000/svg">
<path d="M26.1797 0.5V14.5381C26.1797 19.5023 25.488 24.3851 24.1045 29.1865C22.721 33.988 20.7272 38.5046 18.123 42.7363C15.6003 46.8867 12.5892 50.5895 9.08984 53.8447L0.422852 47.4971C4.16634 42.3701 6.97396 37.2839 8.8457 32.2383C10.7174 27.1113 11.6533 21.3333 11.6533 14.9043V0.5H26.1797ZM55.9648 0.5V14.5381C55.9648 19.5023 55.2731 24.3851 53.8896 29.1865C52.5062 33.988 50.5124 38.5046 47.9082 42.7363C45.3854 46.8867 42.3743 50.5895 38.875 53.8447L30.208 47.4971C33.9515 42.3701 36.7591 37.2839 38.6309 32.2383C40.5026 27.1113 41.4385 21.3333 41.4385 14.9043V0.5H55.9648Z" fill="black"/>
</svg>
