<svg width="57" height="54" viewBox="0 0 57 54" fill="none" xmlns="http://www.w3.org/2000/svg">
<path d="M0.207031 53.1592V39.4873C0.207031 34.4417 0.898763 29.5589 2.28223 24.8389C3.66569 20.0374 5.61882 15.5208 8.1416 11.2891C10.7458 7.05729 13.7975 3.35449 17.2969 0.180664L25.9639 6.52832C22.2204 11.5739 19.3721 16.6602 17.4189 21.7871C15.5472 26.9141 14.6113 32.6921 14.6113 39.1211V53.1592H0.207031ZM30.7246 53.1592V39.4873C30.7246 34.4417 31.4163 29.5589 32.7998 24.8389C34.1833 20.0374 36.1364 15.5208 38.6592 11.2891C41.2633 7.05729 44.3151 3.35449 47.8145 0.180664L56.4814 6.52832C52.738 11.5739 49.8896 16.6602 47.9365 21.7871C46.0648 26.9141 45.1289 32.6921 45.1289 39.1211V53.1592H30.7246Z" fill="black"/>
</svg>
